<svg width="34" height="36" viewBox="0 0 34 36" fill="none" xmlns="http://www.w3.org/2000/svg">
<path d="M30.231 35.6159H3.75914C1.68717 35.6159 0 33.9424 0 31.8872V5.61983C0 3.56463 1.68717 1.89111 3.75914 1.89111H30.231C32.303 1.89111 33.9901 3.56463 33.9901 5.61983V31.8774C34 33.9424 32.3128 35.6159 30.231 35.6159ZM3.75914 3.9561C2.83169 3.9561 2.08183 4.69988 2.08183 5.61983V31.8774C2.08183 32.7974 2.83169 33.5411 3.75914 33.5411H30.231C31.1584 33.5411 31.9083 32.7974 31.9083 31.8774V5.61983C31.9083 4.69988 31.1584 3.9561 30.231 3.9561H3.75914Z" fill="white"/>
<path d="M24.5874 7.46957C24.1434 7.46957 23.7882 7.11725 23.7882 6.67685V1.17675C23.7882 0.736353 24.1434 0.384033 24.5874 0.384033C25.0313 0.384033 25.3865 0.736353 25.3865 1.17675V6.66706C25.3865 7.10746 25.0313 7.46957 24.5874 7.46957ZM9.32385 7.46957C8.87985 7.46957 8.52466 7.11725 8.52466 6.67685V1.17675C8.52466 0.736353 8.87985 0.384033 9.32385 0.384033C9.76784 0.384033 10.123 0.736353 10.123 1.17675V6.66706C10.1329 7.10746 9.76784 7.46957 9.32385 7.46957ZM17.957 25.2226C14.6419 25.2226 11.9483 22.5508 11.9483 19.2625C11.9483 15.9742 14.6419 13.3024 17.957 13.3024C19.4568 13.3024 20.8874 13.8505 21.9925 14.8487C22.1306 14.9661 22.1405 15.1814 22.0122 15.3087C21.8938 15.4457 21.6767 15.4555 21.5485 15.3282C20.5618 14.4377 19.289 13.9483 17.957 13.9483C15.007 13.9483 12.6094 16.3265 12.6094 19.2527C12.6094 22.1789 15.007 24.5571 17.957 24.5571C19.289 24.5571 20.5618 24.0677 21.5485 23.1771C21.6866 23.0597 21.8938 23.0695 22.0122 23.1967C22.1306 23.3337 22.1207 23.5393 21.9925 23.6567C20.8874 24.6745 19.4568 25.2226 17.957 25.2226Z" fill="white"/>
</svg>
