<svg width="206" height="18" viewBox="0 0 206 18" fill="none" xmlns="http://www.w3.org/2000/svg">
<path d="M1.60904 3.59021C1.72086 4.08115 5.83058 4.28017 13.9382 4.18728C22.0446 4.09421 28.3208 3.96221 32.7667 3.79119C37.2128 3.61921 40.9231 3.49374 43.8977 3.41481C46.8721 3.33685 49.2148 3.27957 50.9259 3.24299C52.6357 3.20622 56.743 3.13469 63.2477 3.02842C69.7536 2.92331 74.7468 2.83532 78.2272 2.76442C81.7077 2.69352 87.37 2.60689 95.2141 2.50455C103.058 2.40318 112.193 2.37393 122.618 2.41682C133.043 2.46068 140.845 2.5045 146.023 2.54827C151.201 2.59107 156.193 2.65752 160.999 2.74761C165.805 2.83674 169.684 2.90403 172.637 2.94952C175.59 2.995 185.899 3.34349 203.562 3.99498L203.592 4.03773C203.621 4.15247 198.211 4.43914 187.363 4.89778C176.515 5.35545 167.953 5.73655 161.677 6.04104C155.402 6.3457 150.842 6.58754 147.996 6.76653C145.148 6.94535 143.093 7.06538 141.831 7.12667C140.568 7.18779 135.082 7.5132 125.374 8.10286C115.666 8.69155 105.118 9.41076 93.7284 10.2605C82.3392 11.1093 73.6444 11.7947 67.644 12.3168C61.6434 12.8399 53.8671 13.4581 44.3147 14.1714C34.7625 14.8838 24.4977 15.3263 13.5205 15.4991C13.3884 15.6336 16.267 15.4192 22.1561 14.8557C28.0453 14.2923 35.8076 13.9448 45.443 13.8132C55.0796 13.6827 62.4679 13.6283 67.608 13.6499C72.7467 13.6713 76.7918 13.6721 79.7434 13.6522C82.6936 13.633 86.5957 13.6393 91.4496 13.671C96.302 13.7034 100.151 13.7373 102.996 13.7726C105.843 13.808 109.642 13.8823 114.394 13.9954C119.145 14.1084 122.873 14.2013 125.579 14.2742C128.283 14.3478 130.747 14.4193 132.972 14.4886C135.196 14.5589 137.057 14.6215 138.554 14.6763C140.05 14.7319 142.079 14.8266 144.642 14.9603C147.203 15.0939 149.769 15.2454 152.34 15.4149" stroke="#FF9F3B" stroke-width="3" stroke-linecap="round" stroke-linejoin="round"/>
</svg>
