<?xml version="1.0" encoding="utf-8"?>
<!-- Generator: Adobe Illustrator 25.0.0, SVG Export Plug-In . SVG Version: 6.00 Build 0)  -->
<svg version="1.1" id="Capa_1" xmlns="http://www.w3.org/2000/svg" xmlns:xlink="http://www.w3.org/1999/xlink" x="0px" y="0px"
	 viewBox="0 0 100 100" style="enable-background:new 0 0 100 100;" xml:space="preserve">
<style type="text/css">
	.st0{fill:#010202;}
</style>
<path class="st0" d="M16.7,88.9h66.7c1.4,0,2.8,0.5,3.8,1.5c1,1,1.7,2.3,1.7,3.7c0.1,1.4-0.3,2.8-1.2,3.9c-0.9,1.1-2.2,1.8-3.6,2
	l-0.8,0.1H16.7c-1.4,0-2.8-0.5-3.8-1.5c-1-1-1.7-2.3-1.7-3.7c-0.1-1.4,0.3-2.8,1.2-3.9c0.9-1.1,2.2-1.8,3.6-2L16.7,88.9h66.7H16.7z
	 M49.2,0.1L50,0c1.3,0,2.6,0.5,3.7,1.4c1,0.9,1.7,2.1,1.9,3.4l0.1,0.8v56.9l16.7-16.7c0.9-0.9,2.2-1.5,3.5-1.6
	c1.3-0.1,2.6,0.3,3.7,1.1l0.6,0.5c0.9,0.9,1.5,2.2,1.6,3.5c0.1,1.3-0.3,2.6-1.1,3.7l-0.5,0.6L53.9,79.9c-0.9,0.9-2.2,1.5-3.5,1.6
	c-1.3,0.1-2.6-0.3-3.7-1.1l-0.6-0.5L19.9,53.7c-1-1-1.6-2.3-1.6-3.7c-0.1-1.4,0.4-2.8,1.3-3.8c0.9-1.1,2.2-1.7,3.6-1.9
	c1.4-0.2,2.8,0.2,3.9,1.1l0.6,0.5l16.7,16.7v-57c0-1.3,0.5-2.6,1.4-3.7C46.7,0.9,47.9,0.2,49.2,0.1L50,0L49.2,0.1z"/>
</svg>
