<?xml version="1.0" encoding="utf-8"?>
<!-- Generator: Adobe Illustrator 17.0.0, SVG Export Plug-In . SVG Version: 6.00 Build 0)  -->
<!DOCTYPE svg PUBLIC "-//W3C//DTD SVG 1.1//EN" "http://www.w3.org/Graphics/SVG/1.1/DTD/svg11.dtd">
<svg version="1.1" id="Capa_1" xmlns="http://www.w3.org/2000/svg" xmlns:xlink="http://www.w3.org/1999/xlink" x="0px" y="0px"
	 width="340.157px" height="141.732px" viewBox="0 0 340.157 141.732" enable-background="new 0 0 340.157 141.732"
	 xml:space="preserve">
<path d="M148.002,41.49c2.993,0,5.715,0.67,8.167,2.009c2.451,1.34,4.383,3.186,5.794,5.537c1.411,2.352,2.116,4.967,2.116,7.846
	c0,2.879-0.706,5.501-2.116,7.868c-1.411,2.366-3.342,4.226-5.794,5.58c-2.451,1.354-5.174,2.031-8.167,2.031
	c-2.993,0-5.715-0.677-8.167-2.031c-2.451-1.354-4.383-3.207-5.794-5.558c-1.411-2.352-2.116-4.981-2.116-7.889
	c0-2.879,0.706-5.494,2.116-7.846c1.411-2.352,3.335-4.197,5.772-5.537C142.251,42.16,144.98,41.49,148.002,41.49z M148.088,47.391
	c-1.653,0-3.193,0.42-4.618,1.261c-1.425,0.841-2.551,1.989-3.378,3.442c-0.827,1.454-1.24,3.05-1.24,4.789
	c0,1.767,0.42,3.378,1.261,4.832c0.841,1.454,1.967,2.608,3.378,3.463c1.411,0.855,2.943,1.283,4.596,1.283
	c1.653,0,3.171-0.42,4.554-1.261c1.382-0.841,2.48-1.996,3.292-3.463c0.812-1.468,1.219-3.086,1.219-4.853
	c0-1.739-0.406-3.335-1.219-4.789c-0.812-1.454-1.91-2.601-3.292-3.442C151.259,47.811,149.741,47.391,148.088,47.391
	L148.088,47.391z M183.748,56.712c-1.311-1.625-3.022-2.437-5.131-2.437c-1.653,0-3,0.563-4.041,1.689
	c-1.041,1.126-1.561,2.615-1.561,4.468c0,1.853,0.513,3.357,1.539,4.511c1.026,1.154,2.337,1.732,3.934,1.732
	c2.394,0,4.176-0.898,5.345-2.694l4.532,3.078c-0.969,1.625-2.33,2.879-4.083,3.763c-1.753,0.884-3.798,1.325-6.136,1.325
	c-2.309,0-4.347-0.484-6.114-1.454c-1.767-0.969-3.143-2.337-4.126-4.105c-0.983-1.767-1.475-3.806-1.475-6.114
	c0-2.337,0.492-4.397,1.475-6.179c0.984-1.782,2.366-3.164,4.148-4.147c1.782-0.983,3.841-1.475,6.178-1.475
	c2.195,0,4.148,0.42,5.858,1.261c1.71,0.841,3.079,2.031,4.105,3.57L183.748,56.712L183.748,56.712z M206.709,70.608
	c-0.855,0.513-1.803,0.905-2.843,1.176c-1.04,0.271-2.088,0.406-3.143,0.406c-2.138,0-3.877-0.613-5.216-1.839
	c-1.34-1.226-2.01-2.979-2.01-5.259V54.446h-3.207v-4.532h3.207v-6.328h6.542v6.328h6.242v4.575h-6.242v9.492
	c0,1.767,0.698,2.651,2.095,2.651c0.969,0,2.038-0.285,3.207-0.855L206.709,70.608z M220.904,48.673
	c2.423,0,4.568,0.484,6.435,1.454c1.867,0.969,3.314,2.337,4.34,4.105c1.026,1.767,1.539,3.82,1.539,6.157
	c0,2.309-0.513,4.354-1.539,6.136c-1.026,1.782-2.473,3.164-4.34,4.147c-1.867,0.983-4.012,1.475-6.435,1.475
	c-2.451,0-4.611-0.492-6.478-1.475c-1.867-0.983-3.314-2.366-4.34-4.147c-1.026-1.782-1.539-3.827-1.539-6.136
	c0-2.337,0.513-4.39,1.539-6.157c1.026-1.767,2.473-3.136,4.34-4.105C216.293,49.158,218.453,48.673,220.904,48.673L220.904,48.673z
	 M220.904,54.146c-1.71,0-3.1,0.585-4.169,1.753s-1.603,2.694-1.603,4.575c0,1.881,0.534,3.406,1.603,4.575
	c1.069,1.169,2.459,1.753,4.169,1.753c1.682,0,3.057-0.584,4.126-1.753c1.069-1.169,1.604-2.694,1.604-4.575
	c0-1.881-0.535-3.406-1.604-4.575C223.961,54.731,222.586,54.146,220.904,54.146z M252.075,55.643
	c-1.254-0.713-2.494-1.261-3.72-1.646c-1.226-0.385-2.323-0.577-3.292-0.577c-0.798,0-1.439,0.143-1.924,0.428
	c-0.484,0.285-0.727,0.713-0.727,1.283c0,0.627,0.328,1.112,0.983,1.454c0.656,0.342,1.725,0.727,3.207,1.155
	c1.625,0.484,2.965,0.962,4.019,1.432c1.055,0.47,1.967,1.169,2.737,2.095c0.77,0.926,1.155,2.145,1.155,3.656
	c0,2.28-0.876,4.055-2.63,5.323c-1.753,1.269-3.998,1.903-6.734,1.903c-1.881,0-3.692-0.278-5.43-0.834
	c-1.739-0.556-3.25-1.347-4.532-2.373l2.138-4.447c1.169,0.912,2.473,1.617,3.912,2.116c1.439,0.499,2.801,0.748,4.083,0.748
	c0.884,0,1.589-0.15,2.117-0.449c0.527-0.299,0.791-0.748,0.791-1.347c0-0.656-0.335-1.169-1.005-1.539
	c-0.67-0.37-1.746-0.77-3.228-1.197c-1.568-0.456-2.872-0.912-3.912-1.368c-1.04-0.456-1.931-1.147-2.672-2.074
	c-0.741-0.926-1.112-2.131-1.112-3.613c0-2.28,0.855-4.048,2.565-5.302c1.71-1.254,3.877-1.881,6.499-1.881
	c1.568,0,3.136,0.221,4.703,0.663c1.568,0.442,2.993,1.076,4.276,1.903L252.075,55.643L252.075,55.643z M269.306,48.673
	c2.423,0,4.568,0.484,6.435,1.454c1.867,0.969,3.314,2.337,4.34,4.105c1.026,1.767,1.539,3.82,1.539,6.157
	c0,2.309-0.513,4.354-1.539,6.136c-1.026,1.782-2.473,3.164-4.34,4.147c-1.867,0.983-4.012,1.475-6.435,1.475
	c-2.451,0-4.611-0.492-6.478-1.475c-1.867-0.983-3.314-2.366-4.34-4.147c-1.026-1.782-1.539-3.827-1.539-6.136
	c0-2.337,0.513-4.39,1.539-6.157c1.026-1.767,2.473-3.136,4.34-4.105C264.695,49.158,266.854,48.673,269.306,48.673z
	 M269.306,54.146c-1.71,0-3.1,0.585-4.169,1.753s-1.603,2.694-1.603,4.575c0,1.881,0.534,3.406,1.603,4.575
	c1.069,1.169,2.459,1.753,4.169,1.753c1.682,0,3.057-0.584,4.126-1.753c1.069-1.169,1.604-2.694,1.604-4.575
	c0-1.881-0.535-3.406-1.604-4.575S270.988,54.146,269.306,54.146z M296.201,45.296c-0.798,0-1.454,0.228-1.967,0.684
	c-0.513,0.456-0.77,1.126-0.77,2.009v1.924h5.43v4.575h-5.43v17.402h-6.542V54.488h-3.079v-4.575h3.079v-2.181
	c0-1.653,0.378-3.071,1.133-4.254c0.755-1.183,1.774-2.081,3.057-2.694c1.283-0.613,2.708-0.919,4.276-0.919
	c1.482,0,2.993,0.314,4.532,0.941l-0.983,5.131c-0.428-0.171-0.884-0.321-1.368-0.449C297.084,45.36,296.628,45.296,296.201,45.296
	L296.201,45.296z M316.724,70.608c-0.855,0.513-1.803,0.905-2.843,1.176c-1.04,0.271-2.088,0.406-3.143,0.406
	c-2.138,0-3.877-0.613-5.216-1.839c-1.34-1.226-2.01-2.979-2.01-5.259V54.446h-3.207v-4.532h3.207v-6.328h6.542v6.328h6.242v4.575
	h-6.242v9.492c0,1.767,0.698,2.651,2.095,2.651c0.969,0,2.038-0.285,3.207-0.855L316.724,70.608z"/>
<path d="M142.999,81.915c2.478,0,4.392,0.587,5.742,1.761c1.35,1.174,2.025,2.834,2.025,4.978c0,2.256-0.679,4.008-2.038,5.256
	c-1.359,1.248-3.268,1.872-5.728,1.872h-3.855v5.547h-4.382V81.915L142.999,81.915L142.999,81.915z M142.777,92.122
	c1.239,0,2.186-0.282,2.843-0.846c0.657-0.564,0.984-1.392,0.984-2.482c0-1.073-0.328-1.882-0.984-2.427
	c-0.657-0.545-1.604-0.818-2.843-0.818h-3.633v6.573L142.777,92.122L142.777,92.122z M157.755,89.099
	c0.518-0.925,1.193-1.627,2.025-2.108c0.832-0.481,1.803-0.73,2.912-0.749v4.022c-0.148-0.018-0.37-0.027-0.666-0.027
	c-1.313,0-2.353,0.356-3.12,1.068c-0.767,0.712-1.151,1.659-1.151,2.843v7.184h-4.271V86.409h4.271V89.099z M171.761,86.27
	c1.572,0,2.963,0.314,4.174,0.943c1.211,0.629,2.15,1.516,2.815,2.663c0.666,1.146,0.999,2.478,0.999,3.994
	c0,1.498-0.333,2.824-0.999,3.98c-0.666,1.156-1.604,2.053-2.815,2.69c-1.211,0.638-2.602,0.957-4.174,0.957
	c-1.59,0-2.991-0.319-4.202-0.957c-1.211-0.638-2.15-1.535-2.815-2.69s-0.998-2.482-0.998-3.98c0-1.516,0.333-2.847,0.998-3.994
	c0.666-1.147,1.604-2.034,2.815-2.663C168.77,86.584,170.171,86.27,171.761,86.27z M171.761,89.82c-1.109,0-2.011,0.379-2.704,1.137
	c-0.693,0.758-1.04,1.747-1.04,2.968c0,1.22,0.347,2.21,1.04,2.968c0.693,0.758,1.595,1.137,2.704,1.137
	c1.091,0,1.983-0.379,2.676-1.137c0.693-0.758,1.04-1.748,1.04-2.968c0-1.22-0.347-2.21-1.04-2.968
	C173.744,90.199,172.852,89.82,171.761,89.82z M189.207,84.079c-0.518,0-0.943,0.148-1.276,0.444
	c-0.333,0.296-0.499,0.73-0.499,1.304v1.248h3.522v2.968h-3.522v11.288h-4.244V90.042h-1.997v-2.968h1.997V85.66
	c0-1.072,0.245-1.992,0.735-2.76s1.151-1.35,1.983-1.747s1.757-0.596,2.774-0.596c0.962,0,1.941,0.204,2.94,0.61l-0.638,3.328
	c-0.278-0.111-0.573-0.208-0.888-0.291C189.78,84.12,189.484,84.079,189.207,84.079L189.207,84.079z M199.053,86.27
	c2.404,0,4.23,0.693,5.478,2.08s1.872,3.319,1.872,5.797c0,0.444-0.009,0.786-0.028,1.026H195.67
	c0.24,0.943,0.703,1.678,1.387,2.205c0.684,0.527,1.507,0.791,2.468,0.791c0.703,0,1.378-0.134,2.025-0.402
	c0.647-0.268,1.23-0.661,1.747-1.179l2.247,2.275c-0.758,0.85-1.678,1.502-2.76,1.955c-1.082,0.453-2.288,0.679-3.62,0.679
	c-1.572,0-2.945-0.314-4.119-0.943c-1.174-0.629-2.08-1.516-2.718-2.663c-0.638-1.146-0.957-2.468-0.957-3.966
	c0-1.516,0.323-2.852,0.971-4.008c0.647-1.156,1.553-2.052,2.718-2.69C196.224,86.589,197.556,86.27,199.053,86.27L199.053,86.27z
	 M202.382,92.649c-0.037-0.98-0.351-1.766-0.943-2.358c-0.592-0.592-1.378-0.888-2.358-0.888c-0.925,0-1.697,0.291-2.316,0.874
	c-0.619,0.583-1.013,1.373-1.179,2.371H202.382z M218.607,90.791c-0.814-0.462-1.618-0.818-2.413-1.068
	c-0.795-0.249-1.507-0.374-2.136-0.374c-0.518,0-0.934,0.092-1.248,0.277c-0.314,0.185-0.472,0.462-0.472,0.832
	c0,0.407,0.213,0.721,0.638,0.943c0.425,0.222,1.119,0.472,2.08,0.749c1.054,0.314,1.923,0.624,2.607,0.929
	c0.684,0.305,1.276,0.758,1.775,1.359c0.499,0.601,0.749,1.392,0.749,2.371c0,1.479-0.569,2.63-1.706,3.453
	c-1.137,0.823-2.593,1.234-4.368,1.234c-1.22,0-2.394-0.18-3.522-0.541c-1.128-0.361-2.108-0.874-2.94-1.539l1.387-2.885
	c0.758,0.592,1.604,1.049,2.538,1.373c0.934,0.324,1.817,0.485,2.649,0.485c0.573,0,1.031-0.097,1.373-0.291
	c0.342-0.194,0.513-0.485,0.513-0.874c0-0.425-0.217-0.758-0.652-0.999c-0.435-0.24-1.133-0.499-2.094-0.776
	c-1.017-0.296-1.863-0.592-2.538-0.888c-0.675-0.296-1.253-0.744-1.734-1.345s-0.721-1.382-0.721-2.344
	c0-1.479,0.555-2.626,1.664-3.439c1.109-0.814,2.515-1.22,4.216-1.22c1.017,0,2.034,0.143,3.051,0.43
	c1.017,0.287,1.941,0.698,2.773,1.234L218.607,90.791z M232.447,90.791c-0.814-0.462-1.618-0.818-2.413-1.068
	c-0.795-0.249-1.507-0.374-2.136-0.374c-0.518,0-0.934,0.092-1.248,0.277c-0.314,0.185-0.472,0.462-0.472,0.832
	c0,0.407,0.213,0.721,0.638,0.943c0.425,0.222,1.119,0.472,2.08,0.749c1.054,0.314,1.923,0.624,2.607,0.929
	c0.684,0.305,1.276,0.758,1.775,1.359c0.499,0.601,0.749,1.392,0.749,2.371c0,1.479-0.569,2.63-1.706,3.453
	s-2.593,1.234-4.368,1.234c-1.22,0-2.394-0.18-3.522-0.541s-2.108-0.874-2.94-1.539l1.387-2.885
	c0.758,0.592,1.604,1.049,2.538,1.373c0.934,0.324,1.817,0.485,2.649,0.485c0.573,0,1.031-0.097,1.373-0.291
	c0.342-0.194,0.513-0.485,0.513-0.874c0-0.425-0.217-0.758-0.652-0.999c-0.435-0.24-1.133-0.499-2.094-0.776
	c-1.017-0.296-1.863-0.592-2.538-0.888c-0.675-0.296-1.253-0.744-1.734-1.345s-0.721-1.382-0.721-2.344
	c0-1.479,0.555-2.626,1.664-3.439s2.515-1.22,4.216-1.22c1.017,0,2.034,0.143,3.051,0.43c1.017,0.287,1.941,0.698,2.773,1.234
	L232.447,90.791z M236.885,86.409h4.271v14.922h-4.271V86.409z M238.993,79.78c0.684,0,1.244,0.222,1.678,0.666
	c0.435,0.444,0.652,1.017,0.652,1.719c0,0.703-0.217,1.276-0.652,1.72c-0.435,0.444-0.994,0.666-1.678,0.666
	c-0.666,0-1.216-0.226-1.65-0.679c-0.435-0.453-0.652-1.022-0.652-1.706c0-0.702,0.217-1.276,0.652-1.719
	C237.777,80.001,238.327,79.78,238.993,79.78z M252.001,86.27c1.572,0,2.963,0.314,4.174,0.943c1.211,0.629,2.15,1.516,2.815,2.663
	c0.666,1.146,0.999,2.478,0.999,3.994c0,1.498-0.333,2.824-0.999,3.98c-0.666,1.156-1.604,2.053-2.815,2.69
	c-1.211,0.638-2.602,0.957-4.174,0.957c-1.59,0-2.991-0.319-4.202-0.957c-1.211-0.638-2.15-1.535-2.815-2.69
	s-0.998-2.482-0.998-3.98c0-1.516,0.333-2.847,0.998-3.994c0.666-1.147,1.604-2.034,2.815-2.663
	C249.01,86.584,250.411,86.27,252.001,86.27z M252.001,89.82c-1.109,0-2.011,0.379-2.704,1.137c-0.693,0.758-1.04,1.747-1.04,2.968
	c0,1.22,0.347,2.21,1.04,2.968c0.693,0.758,1.595,1.137,2.704,1.137c1.091,0,1.983-0.379,2.676-1.137
	c0.693-0.758,1.04-1.748,1.04-2.968c0-1.22-0.347-2.21-1.04-2.968C253.984,90.199,253.092,89.82,252.001,89.82z M272.248,86.242
	c1.664,0,2.991,0.518,3.98,1.553s1.484,2.422,1.484,4.16v9.375h-4.271v-8.127c0-0.943-0.264-1.687-0.791-2.233
	c-0.527-0.546-1.244-0.818-2.15-0.818c-1.054,0.018-1.886,0.384-2.496,1.096c-0.61,0.712-0.915,1.623-0.915,2.732v7.35h-4.271
	V86.409h4.271v2.607C268.125,87.204,269.844,86.279,272.248,86.242L272.248,86.242z M290.055,101.33v-1.747
	c-0.499,0.629-1.147,1.109-1.942,1.442c-0.795,0.333-1.71,0.499-2.746,0.499c-1.572,0-2.82-0.43-3.745-1.29
	c-0.924-0.86-1.387-1.983-1.387-3.37c0-1.405,0.495-2.501,1.484-3.287c0.989-0.786,2.39-1.188,4.202-1.206h4.105v-0.278
	c0-0.795-0.264-1.41-0.791-1.844c-0.527-0.435-1.299-0.652-2.316-0.652c-1.387,0-2.866,0.435-4.438,1.304l-1.331-2.94
	c1.183-0.592,2.293-1.026,3.328-1.304c1.035-0.277,2.172-0.416,3.411-0.416c1.997,0,3.546,0.471,4.646,1.414
	c1.1,0.943,1.659,2.256,1.678,3.938l0.028,9.735H290.055z M286.56,98.474c0.888,0,1.655-0.213,2.302-0.638
	c0.647-0.425,1.035-0.962,1.165-1.609v-1.331h-3.356c-0.832,0-1.447,0.134-1.844,0.402c-0.398,0.268-0.596,0.698-0.596,1.29
	c0,0.573,0.208,1.031,0.624,1.373C285.27,98.302,285.839,98.474,286.56,98.474L286.56,98.474z M298.07,80.75h4.271v20.58h-4.271
	V80.75z M316.015,90.791c-0.814-0.462-1.618-0.818-2.413-1.068c-0.795-0.249-1.507-0.374-2.136-0.374
	c-0.518,0-0.934,0.092-1.248,0.277c-0.314,0.185-0.472,0.462-0.472,0.832c0,0.407,0.213,0.721,0.638,0.943
	c0.425,0.222,1.119,0.472,2.08,0.749c1.054,0.314,1.923,0.624,2.607,0.929c0.684,0.305,1.276,0.758,1.775,1.359
	c0.499,0.601,0.749,1.392,0.749,2.371c0,1.479-0.569,2.63-1.706,3.453c-1.137,0.823-2.593,1.234-4.368,1.234
	c-1.22,0-2.394-0.18-3.522-0.541c-1.128-0.361-2.108-0.874-2.94-1.539l1.387-2.885c0.758,0.592,1.604,1.049,2.538,1.373
	c0.934,0.324,1.817,0.485,2.649,0.485c0.573,0,1.031-0.097,1.373-0.291c0.342-0.194,0.513-0.485,0.513-0.874
	c0-0.425-0.217-0.758-0.652-0.999c-0.435-0.24-1.133-0.499-2.094-0.776c-1.017-0.296-1.863-0.592-2.538-0.888
	c-0.675-0.296-1.253-0.744-1.734-1.345c-0.481-0.601-0.721-1.382-0.721-2.344c0-1.479,0.555-2.626,1.664-3.439
	s2.515-1.22,4.216-1.22c1.017,0,2.034,0.143,3.051,0.43c1.017,0.287,1.941,0.698,2.773,1.234L316.015,90.791L316.015,90.791z"/>
<g>
	<path fill="#37ADD4" d="M73.193,117.38c-1.934,0.801-5.099,0.801-7.034-0.001l-26.886-11.136c-1.934-0.802-4.172-3.04-4.974-4.974
		L23.162,74.383c-0.801-1.935-0.801-5.1,0-7.034l11.137-26.886c0.801-1.935,3.039-4.173,4.973-4.974l26.887-11.137
		c1.935-0.801,5.1-0.801,7.034,0.001l26.886,11.137c1.935,0.802,4.173,3.039,4.974,4.973l11.137,26.886
		c0.801,1.935,0.801,5.099,0,7.034l-11.137,26.886c-0.802,1.935-3.039,4.173-4.973,4.974L73.193,117.38z M73.193,117.38
		c-1.934,0.801-5.099,0.801-7.034-0.001C66.159,117.38,73.193,117.38,73.193,117.38z M66.159,117.38l-26.886-11.136L66.159,117.38z
		 M39.273,106.243c-1.934-0.802-4.172-3.04-4.974-4.974L39.273,106.243z M34.299,101.27L23.162,74.383L34.299,101.27z
		 M23.162,74.383c-0.801-1.935-0.801-5.1,0-7.034V74.383z M23.162,67.349l11.137-26.886L23.162,67.349z M34.299,40.463
		c0.801-1.935,3.039-4.173,4.973-4.974L34.299,40.463z M39.272,35.489l26.887-11.137L39.272,35.489z M66.159,24.352
		c1.935-0.801,5.1-0.801,7.034,0.001L66.159,24.352z M73.193,24.353l26.886,11.137L73.193,24.353z M100.078,35.489
		c1.935,0.802,4.173,3.039,4.974,4.973L100.078,35.489z M105.052,40.463l11.137,26.886
		C116.189,67.349,105.052,40.463,105.052,40.463z M116.189,67.349c0.801,1.935,0.801,5.099,0,7.034V67.349z M116.189,74.383
		l-11.137,26.886L116.189,74.383z M105.053,101.269c-0.802,1.935-3.039,4.173-4.973,4.974L105.053,101.269z M100.079,106.243
		L73.193,117.38C73.193,117.38,100.079,106.243,100.079,106.243z"/>
</g>
<g>
	<path fill="#FEFEFE" d="M52.87,83.861c-1.008,0-2.416-0.584-3.129-1.297l-9.909-9.909c-0.713-0.713-1.296-2.121-1.296-3.129
		l0-14.014c0-1.009,0.583-2.416,1.296-3.129l9.91-9.909c0.713-0.713,2.121-1.297,3.129-1.297l14.014,0
		c1.008,0,2.416,0.584,3.129,1.297l9.909,9.909c0.713,0.713,1.296,2.121,1.296,3.129l0,14.014c0,1.008-0.583,2.416-1.296,3.129
		l-9.909,9.909c-0.713,0.713-2.121,1.297-3.129,1.297C66.884,83.86,52.87,83.861,52.87,83.861z M52.87,83.861
		c-1.008,0-2.416-0.584-3.129-1.297L52.87,83.861z M49.741,82.564l-9.909-9.909L49.741,82.564z M39.831,72.655
		c-0.713-0.713-1.296-2.121-1.296-3.129L39.831,72.655z M38.535,69.526l0-14.014L38.535,69.526z M38.535,55.511
		c0-1.009,0.583-2.416,1.296-3.129L38.535,55.511z M39.831,52.382l9.91-9.909L39.831,52.382z M49.741,42.473
		c0.713-0.713,2.121-1.297,3.129-1.297L49.741,42.473z M52.87,41.176l14.014,0L52.87,41.176z M66.884,41.176
		c1.008,0,2.416,0.584,3.129,1.297L66.884,41.176z M70.013,42.473l9.909,9.909L70.013,42.473z M79.923,52.382
		c0.713,0.713,1.296,2.121,1.296,3.129L79.923,52.382z M81.219,55.511l0,14.014C81.219,69.525,81.219,55.511,81.219,55.511z
		 M81.219,69.525c0,1.008-0.583,2.416-1.296,3.129L81.219,69.525z M79.923,72.655l-9.909,9.909L79.923,72.655z M70.013,82.564
		c-0.713,0.713-2.121,1.297-3.129,1.297L70.013,82.564z M66.884,83.86l-14.014,0L66.884,83.86z"/>
</g>
<g>
	<path fill="#FEFEFE" d="M85.219,100.845c-0.458,0-1.097-0.265-1.42-0.588L79.3,95.757c-0.324-0.324-0.588-0.963-0.588-1.42v-6.362
		c0-0.458,0.265-1.097,0.588-1.421l4.499-4.498c0.324-0.324,0.963-0.588,1.42-0.588l6.362,0c0.458,0,1.097,0.265,1.421,0.588
		l4.498,4.499c0.324,0.324,0.588,0.963,0.588,1.42v6.362c0,0.458-0.265,1.097-0.588,1.42l-4.499,4.498
		c-0.324,0.324-0.963,0.589-1.42,0.589H85.219z M85.219,100.845c-0.458,0-1.097-0.265-1.42-0.588L85.219,100.845z M83.799,100.256
		L79.3,95.757L83.799,100.256z M79.3,95.757c-0.324-0.324-0.588-0.963-0.588-1.42L79.3,95.757z M78.712,94.337v-6.362V94.337z
		 M78.712,87.975c0-0.458,0.265-1.097,0.588-1.421L78.712,87.975z M79.3,86.554l4.499-4.498L79.3,86.554z M83.799,82.056
		c0.324-0.324,0.963-0.588,1.42-0.588L83.799,82.056z M85.219,81.468l6.362,0L85.219,81.468z M91.581,81.467
		c0.458,0,1.097,0.265,1.421,0.588L91.581,81.467z M93.002,82.056l4.498,4.499L93.002,82.056z M97.5,86.554
		c0.324,0.324,0.588,0.963,0.588,1.42L97.5,86.554z M98.089,87.975v6.362V87.975z M98.089,94.337c0,0.458-0.265,1.097-0.588,1.42
		L98.089,94.337z M97.5,95.757l-4.499,4.498L97.5,95.757z M93.002,100.256c-0.324,0.324-0.963,0.589-1.42,0.589L93.002,100.256z
		 M91.581,100.845h-6.362H91.581z"/>
</g>
</svg>
