<svg width="25" height="26" viewBox="0 0 25 26" fill="none" xmlns="http://www.w3.org/2000/svg">
<path d="M6.01648 18.4725C5.59341 18.4725 5.00232 18.2275 4.7031 17.9287L0.544317 13.7698C0.245095 13.4706 0.000429485 12.8795 0.000429485 12.4564V6.57458C0.000429485 6.15151 0.245528 5.56043 0.544317 5.2612L4.70354 1.10237C5.00276 0.803146 5.59384 0.55805 6.01691 0.55805H11.8987C12.3218 0.55805 12.9129 0.803146 13.2121 1.10194L17.3709 5.26077C17.6701 5.55999 17.9148 6.15108 17.9148 6.57415V12.4556C17.9148 12.8787 17.6697 13.4697 17.3709 13.769L13.2121 17.9278C12.9129 18.227 12.3218 18.4721 11.8987 18.4721L6.01648 18.4725ZM6.01648 18.4725C5.59341 18.4725 5.00232 18.2275 4.7031 17.9287L6.01648 18.4725ZM0.544317 13.7694C0.245095 13.4702 0.000429485 12.8791 0.000429485 12.456L0.544317 13.7694ZM0 6.57415C0 6.15108 0.245092 5.55999 0.54388 5.26077L0 6.57415ZM4.7031 1.10194C5.00232 0.802713 5.59341 0.557617 6.01648 0.557617L4.7031 1.10194ZM11.8983 0.55805C12.3214 0.55805 12.9124 0.803146 13.2117 1.10194L11.8983 0.55805ZM17.3704 5.26077C17.6697 5.55999 17.9143 6.15108 17.9143 6.57415L17.3704 5.26077ZM17.9148 12.456C17.9148 12.8791 17.6697 13.4702 17.3709 13.7694L17.9148 12.456ZM13.2117 17.9282C12.9124 18.2275 12.3214 18.4725 11.8983 18.4725L13.2117 17.9282Z" fill="#37D4AD"/>
<path d="M19.5932 25.6005C19.4009 25.6005 19.1329 25.4892 18.9969 25.3537L17.1089 23.4657C16.9729 23.3297 16.8621 23.0617 16.8621 22.8694V20.1993C16.8621 20.0071 16.9733 19.739 17.1089 19.6031L18.9969 17.715C19.1329 17.5791 19.4009 17.4682 19.5932 17.4682H22.2632C22.4555 17.4682 22.7235 17.5795 22.8595 17.7155L24.7475 19.6035C24.8834 19.7395 24.9943 20.0075 24.9943 20.1998V22.8698C24.9943 23.0621 24.883 23.3301 24.7475 23.4661L22.8595 25.3541C22.7235 25.4901 22.4555 25.601 22.2632 25.601L19.5932 25.6005ZM19.5932 25.6005C19.4009 25.6005 19.1329 25.4892 18.9969 25.3537L19.5932 25.6005ZM18.9973 25.3537L17.1093 23.4657L18.9973 25.3537ZM17.1093 23.4657C16.9733 23.3297 16.8625 23.0617 16.8625 22.8694L17.1093 23.4657ZM16.8621 22.8694V20.1993V22.8694ZM16.8621 20.1993C16.8621 20.0071 16.9733 19.739 17.1089 19.6031L16.8621 20.1993ZM17.1093 19.6031L18.9973 17.715L17.1093 19.6031ZM18.9973 17.715C19.1333 17.5791 19.4013 17.4682 19.5936 17.4682L18.9973 17.715ZM19.5932 17.4682H22.2632H19.5932ZM22.2636 17.4678C22.4559 17.4678 22.7239 17.5791 22.8599 17.715L22.2636 17.4678ZM22.8595 17.715L24.7475 19.6031L22.8595 17.715ZM24.7475 19.6031C24.8834 19.739 24.9943 20.0071 24.9943 20.1993L24.7475 19.6031ZM24.9943 20.1993V22.8694V20.1993ZM24.9947 22.8694C24.9947 23.0617 24.8835 23.3297 24.7479 23.4657L24.9947 22.8694ZM24.7475 23.4653L22.8595 25.3533L24.7475 23.4653ZM22.8595 25.3533C22.7235 25.4892 22.4555 25.6001 22.2632 25.6001L22.8595 25.3533ZM22.2636 25.6005H19.5936H22.2636Z" fill="#37D4AD"/>
</svg>
