<svg
    xmlns="http://www.w3.org/2000/svg"
    width="100"
    height="100"
    viewBox="0 0 100 100"
  >
    <path d="M 32.225496,92.65069 14.651203,85.33283 7.3256018,67.66132 0,49.98982 7.3253946,32.31881 14.65079,14.64781 32.325395,7.3239 49.999999,0 67.674597,7.3239 85.349201,14.64781 92.674606,32.31881 100,49.98982 l -7.325394,17.671 -7.325405,17.671 -17.736961,7.34974 c -9.755342,4.04236 -17.753958,7.33563 -17.774715,7.31837 -0.02072,-0.0173 -7.94617,-3.32442 -17.612029,-7.34924 z m 46.295112,-14.12783 3.112055,-3.09318 v -4.20402 -4.20402 l -3.093805,-3.11143 -3.093813,-3.11144 h -4.004672 -4.00467 l -3.112065,3.09319 -3.112069,3.09318 v 4.20402 4.20402 l 3.093818,3.11143 3.093813,3.11144 h 4.004672 4.004661 z M 56.502422,56.09929 63.213636,49.39816 v -9.199 -9.199 l -6.71998,-6.71861 -6.71998,-6.71861 h -9.36922 -9.369229 l -6.534156,6.48956 -6.534157,6.48957 v 9.61937 9.61939 l 6.502171,6.5098 6.502163,6.50981 h 9.40998 9.40998 z" />
</svg>