<?xml version="1.0" encoding="UTF-8" standalone="no"?>
<svg
   xmlns:dc="http://purl.org/dc/elements/1.1/"
   xmlns:cc="http://creativecommons.org/ns#"
   xmlns:rdf="http://www.w3.org/1999/02/22-rdf-syntax-ns#"
   xmlns:svg="http://www.w3.org/2000/svg"
   xmlns="http://www.w3.org/2000/svg"
   xmlns:sodipodi="http://sodipodi.sourceforge.net/DTD/sodipodi-0.dtd"
   xmlns:inkscape="http://www.inkscape.org/namespaces/inkscape"
   width="100"
   height="100"
   viewBox="0 0 100 100"
   version="1.1"
   id="svg3779"
   sodipodi:docname="logoHome.svg"
   inkscape:version="1.0.1 (1.0.1+r73)">
  <metadata
     id="metadata3785">
    <rdf:RDF>
      <cc:Work
         rdf:about="">
        <dc:format>image/svg+xml</dc:format>
        <dc:type
           rdf:resource="http://purl.org/dc/dcmitype/StillImage" />
        <dc:title />
      </cc:Work>
    </rdf:RDF>
  </metadata>
  <defs
     id="defs3783" />
  <sodipodi:namedview
     pagecolor="#ffffff"
     bordercolor="#666666"
     borderopacity="1"
     objecttolerance="10"
     gridtolerance="10"
     guidetolerance="10"
     inkscape:pageopacity="0"
     inkscape:pageshadow="2"
     inkscape:window-width="1920"
     inkscape:window-height="1043"
     id="namedview3781"
     showgrid="false"
     inkscape:zoom="7.7923168"
     inkscape:cx="43.14316"
     inkscape:cy="49.34084"
     inkscape:window-x="1920"
     inkscape:window-y="0"
     inkscape:window-maximized="1"
     inkscape:current-layer="svg3779"
     inkscape:document-rotation="0" />
  <path
     style="fill:#33adff;fill-opacity:1"
     d="M 32.225496,92.65069 14.651203,85.33283 7.325602,67.66132 0,49.98982 7.325395,32.31881 14.65079,14.64781 32.325395,7.3239 49.999999,0 l 17.674594,7.3239 17.67461,7.32391 7.3254,17.671 L 100,49.98982 l -7.325397,17.671 -7.3254,17.671 -17.73696,7.34974 c -9.755345,4.04236 -17.753961,7.33563 -17.774718,7.31837 -0.02072,-0.0173 -7.94617,-3.32442 -17.612029,-7.34924 z"
     id="path3777" />
  <path
     style="fill:#ffffff;fill-opacity:1"
     d="m 56.502422,56.09929 6.711214,-6.70113 v -9.199 -9.199 l -6.71998,-6.71861 -6.71998,-6.71861 h -9.36922 -9.369229 l -6.534156,6.48956 -6.534157,6.48957 v 9.61937 9.61939 l 6.502171,6.5098 6.502163,6.50981 h 9.40998 9.40998 z"
     id="path11" />
  <path
     style="fill:#ffffff;fill-opacity:1"
     d="m 78.520608,78.52286 3.112055,-3.09318 v -4.20402 -4.20402 l -3.093805,-3.11143 -3.093813,-3.11144 h -4.004672 -4.00467 l -3.112065,3.09319 -3.112069,3.09318 v 4.20402 4.20402 l 3.093818,3.11143 3.093813,3.11144 h 4.004672 4.004661 z"
     id="path9" />
</svg>
