<svg width="25" height="27" viewBox="0 0 25 27" fill="none" xmlns="http://www.w3.org/2000/svg">
<path d="M6.01648 18.9115C5.59341 18.9115 5.00232 18.6664 4.7031 18.3676L0.544317 14.2088C0.245095 13.9096 0.000429485 13.3185 0.000429485 12.8954V7.01355C0.000429485 6.59048 0.245528 5.99939 0.544317 5.70017L4.70354 1.54133C5.00276 1.24211 5.59384 0.997015 6.01691 0.997015H11.8987C12.3218 0.997015 12.9129 1.24211 13.2121 1.5409L17.3709 5.69973C17.6701 5.99896 17.9148 6.59004 17.9148 7.01312V12.8945C17.9148 13.3176 17.6697 13.9087 17.3709 14.2079L13.2121 18.3668C12.9129 18.666 12.3218 18.9111 11.8987 18.9111L6.01648 18.9115ZM6.01648 18.9115C5.59341 18.9115 5.00232 18.6664 4.7031 18.3676L6.01648 18.9115ZM0.544317 14.2084C0.245095 13.9091 0.000429485 13.3181 0.000429485 12.895L0.544317 14.2084ZM0 7.01312C0 6.59004 0.245092 5.99896 0.54388 5.69973L0 7.01312ZM4.7031 1.5409C5.00232 1.24168 5.59341 0.996582 6.01648 0.996582L4.7031 1.5409ZM11.8983 0.997015C12.3214 0.997015 12.9124 1.24211 13.2117 1.5409L11.8983 0.997015ZM17.3704 5.69973C17.6697 5.99896 17.9143 6.59004 17.9143 7.01312L17.3704 5.69973ZM17.9148 12.895C17.9148 13.3181 17.6697 13.9091 17.3709 14.2084L17.9148 12.895ZM13.2117 18.3672C12.9124 18.6664 12.3214 18.9115 11.8983 18.9115L13.2117 18.3672Z" fill="#D437AD"/>
<path d="M19.5932 26.0395C19.4009 26.0395 19.1329 25.9282 18.9969 25.7927L17.1089 23.9047C16.9729 23.7687 16.8621 23.5006 16.8621 23.3084V20.6383C16.8621 20.446 16.9733 20.178 17.1089 20.042L18.9969 18.154C19.1329 18.018 19.4009 17.9072 19.5932 17.9072H22.2632C22.4555 17.9072 22.7235 18.0185 22.8595 18.1544L24.7475 20.0424C24.8834 20.1784 24.9943 20.4465 24.9943 20.6387V23.3088C24.9943 23.5011 24.883 23.7691 24.7475 23.9051L22.8595 25.7931C22.7235 25.9291 22.4555 26.0399 22.2632 26.0399L19.5932 26.0395ZM19.5932 26.0395C19.4009 26.0395 19.1329 25.9282 18.9969 25.7927L19.5932 26.0395ZM18.9973 25.7927L17.1093 23.9047L18.9973 25.7927ZM17.1093 23.9047C16.9733 23.7687 16.8625 23.5006 16.8625 23.3084L17.1093 23.9047ZM16.8621 23.3084V20.6383V23.3084ZM16.8621 20.6383C16.8621 20.446 16.9733 20.178 17.1089 20.042L16.8621 20.6383ZM17.1093 20.042L18.9973 18.154L17.1093 20.042ZM18.9973 18.154C19.1333 18.018 19.4013 17.9072 19.5936 17.9072L18.9973 18.154ZM19.5932 17.9072H22.2632H19.5932ZM22.2636 17.9067C22.4559 17.9067 22.7239 18.018 22.8599 18.154L22.2636 17.9067ZM22.8595 18.154L24.7475 20.042L22.8595 18.154ZM24.7475 20.042C24.8834 20.178 24.9943 20.446 24.9943 20.6383L24.7475 20.042ZM24.9943 20.6383V23.3084V20.6383ZM24.9947 23.3084C24.9947 23.5006 24.8835 23.7687 24.7479 23.9047L24.9947 23.3084ZM24.7475 23.9042L22.8595 25.7922L24.7475 23.9042ZM22.8595 25.7922C22.7235 25.9282 22.4555 26.0391 22.2632 26.0391L22.8595 25.7922ZM22.2636 26.0395H19.5936H22.2636Z" fill="#D437AD"/>
</svg>
