<?xml version="1.0" encoding="utf-8"?>
<!-- Generator: Adobe Illustrator 17.0.0, SVG Export Plug-In . SVG Version: 6.00 Build 0)  -->
<!DOCTYPE svg PUBLIC "-//W3C//DTD SVG 1.1//EN" "http://www.w3.org/Graphics/SVG/1.1/DTD/svg11.dtd">
<svg version="1.1" id="Capa_1" xmlns="http://www.w3.org/2000/svg" xmlns:xlink="http://www.w3.org/1999/xlink" x="0px" y="0px"
	 width="141.732px" height="141.732px" viewBox="99.213 0 141.732 141.732" enable-background="new 99.213 0 141.732 141.732"
	 xml:space="preserve">
<g id="_2152338752">
	<g>
		<path fill="#37ADD4" d="M174.311,126.836c-2.328,0.964-6.136,0.964-8.463-0.001l-32.352-13.401
			c-2.328-0.965-5.021-3.658-5.985-5.985l-13.402-32.352c-0.963-2.328-0.963-6.136,0-8.464l13.402-32.352
			c0.964-2.328,3.657-5.021,5.984-5.985l32.353-13.402c2.328-0.963,6.136-0.963,8.464,0.001l32.352,13.401
			c2.328,0.964,5.021,3.657,5.985,5.984l13.401,32.352c0.964,2.328,0.964,6.136,0,8.464l-13.401,32.352
			c-0.965,2.328-3.657,5.021-5.984,5.985L174.311,126.836L174.311,126.836z M174.311,126.836c-2.328,0.964-6.136,0.964-8.463-0.001
			L174.311,126.836z M165.847,126.836l-32.352-13.401L165.847,126.836z M133.495,113.435c-2.328-0.965-5.021-3.658-5.985-5.985
			C127.51,107.451,133.495,113.435,133.495,113.435z M127.51,107.451l-13.402-32.352L127.51,107.451z M114.109,75.099
			c-0.963-2.328-0.963-6.136,0-8.464V75.099z M114.109,66.635l13.402-32.352L114.109,66.635z M127.51,34.283
			c0.964-2.328,3.657-5.021,5.984-5.985L127.51,34.283z M133.494,28.298l32.353-13.402L133.494,28.298z M165.847,14.896
			c2.328-0.963,6.136-0.963,8.464,0.001L165.847,14.896z M174.311,14.897l32.352,13.401L174.311,14.897z M206.662,28.298
			c2.328,0.964,5.021,3.657,5.985,5.984L206.662,28.298z M212.647,34.282l13.401,32.352L212.647,34.282z M226.049,66.634
			c0.964,2.328,0.964,6.136,0,8.464V66.634z M226.049,75.098l-13.401,32.352L226.049,75.098z M212.648,107.45
			c-0.965,2.328-3.657,5.021-5.984,5.985L212.648,107.45z M206.663,113.435l-32.353,13.402
			C174.311,126.836,206.663,113.435,206.663,113.435z"/>
	</g>
	<g>
		<path fill="#FEFEFE" d="M149.856,86.502c-1.213,0-2.907-0.702-3.765-1.56l-11.924-11.924c-0.858-0.858-1.56-2.552-1.56-3.766
			l0-16.863c0-1.214,0.702-2.908,1.56-3.766l11.924-11.923c0.858-0.858,2.552-1.56,3.765-1.56l16.864,0
			c1.213,0,2.907,0.702,3.766,1.56l11.924,11.924c0.858,0.858,1.56,2.552,1.56,3.766l0,16.863c0,1.214-0.702,2.908-1.56,3.766
			l-11.924,11.924c-0.858,0.858-2.552,1.56-3.765,1.56L149.856,86.502z M149.856,86.502c-1.213,0-2.907-0.702-3.765-1.56
			L149.856,86.502z M146.091,84.942l-11.924-11.924L146.091,84.942z M134.167,73.018c-0.858-0.858-1.56-2.552-1.56-3.766
			L134.167,73.018z M132.607,69.253l0-16.863L132.607,69.253z M132.607,52.39c0-1.214,0.702-2.908,1.56-3.766L132.607,52.39z
			 M134.167,48.624l11.924-11.923L134.167,48.624z M146.091,36.701c0.858-0.858,2.552-1.56,3.765-1.56L146.091,36.701z
			 M149.856,35.141l16.864,0L149.856,35.141z M166.72,35.14c1.213,0,2.907,0.702,3.766,1.56L166.72,35.14z M170.485,36.7
			l11.924,11.924L170.485,36.7z M182.409,48.624c0.858,0.858,1.56,2.552,1.56,3.766L182.409,48.624z M183.969,52.39l0,16.863
			L183.969,52.39z M183.969,69.253c0,1.214-0.702,2.908-1.56,3.766L183.969,69.253z M182.409,73.018l-11.924,11.924L182.409,73.018z
			 M170.485,84.942c-0.858,0.858-2.552,1.56-3.765,1.56L170.485,84.942z M166.72,86.502l-16.864,0L166.72,86.502z"/>
	</g>
	<g>
		<path fill="#FEFEFE" d="M188.783,106.939c-0.551,0-1.32-0.319-1.709-0.708l-5.413-5.413c-0.389-0.389-0.708-1.159-0.708-1.709
			l0-7.655c0-0.551,0.319-1.32,0.708-1.709l5.413-5.413c0.389-0.389,1.159-0.708,1.709-0.708l7.656,0
			c0.551,0,1.32,0.319,1.709,0.708l5.413,5.413c0.389,0.389,0.708,1.159,0.708,1.709v7.655c0,0.551-0.319,1.32-0.708,1.71
			l-5.413,5.413c-0.389,0.39-1.159,0.708-1.709,0.708H188.783L188.783,106.939z M188.783,106.939c-0.551,0-1.32-0.319-1.709-0.708
			L188.783,106.939z M187.073,106.231l-5.413-5.413L187.073,106.231z M181.66,100.818c-0.389-0.389-0.708-1.159-0.708-1.709
			L181.66,100.818z M180.952,99.109l0-7.655L180.952,99.109z M180.952,91.453c0-0.551,0.319-1.32,0.708-1.709L180.952,91.453z
			 M181.66,89.744l5.413-5.413L181.66,89.744z M187.073,84.331c0.389-0.389,1.159-0.708,1.709-0.708L187.073,84.331z
			 M188.782,83.623l7.656,0L188.782,83.623z M196.438,83.623c0.551,0,1.32,0.319,1.709,0.708L196.438,83.623z M198.147,84.331
			l5.413,5.413L198.147,84.331z M203.56,89.744c0.389,0.389,0.708,1.159,0.708,1.709L203.56,89.744z M204.268,91.453v7.655V91.453z
			 M204.268,99.108c0,0.551-0.319,1.32-0.708,1.71L204.268,99.108z M203.56,100.818l-5.413,5.413L203.56,100.818z M198.147,106.231
			c-0.389,0.39-1.159,0.708-1.709,0.708L198.147,106.231z M196.438,106.939h-7.655H196.438z"/>
	</g>
</g>
</svg>
