<svg width="197" height="197" viewBox="0 0 197 197" fill="none" xmlns="http://www.w3.org/2000/svg">
<path d="M93.9078 0.976374C96.8481 -0.241554 100.152 -0.241557 103.092 0.976371L163.911 26.1685C166.852 27.3864 169.188 29.7225 170.406 32.6628L195.598 93.482C196.816 96.4223 196.816 99.7261 195.598 102.666L170.406 163.486C169.188 166.426 166.852 168.762 163.911 169.98L103.092 195.172C100.152 196.39 96.8481 196.39 93.9078 195.172L33.0886 169.98C30.1483 168.762 27.8122 166.426 26.5943 163.486L1.40215 102.666C0.184227 99.7261 0.184225 96.4224 1.40215 93.482L26.5943 32.6629C27.8122 29.7225 30.1483 27.3864 33.0886 26.1685L93.9078 0.976374Z"/>
</svg>
