<?xml version="1.0" encoding="utf-8"?>
<!-- Generator: Adobe Illustrator 25.0.0, SVG Export Plug-In . SVG Version: 6.00 Build 0)  -->
<svg version="1.1" id="Capa_1" xmlns="http://www.w3.org/2000/svg" xmlns:xlink="http://www.w3.org/1999/xlink" x="0px" y="0px"
	 viewBox="0 0 609.8 121.2" style="enable-background:new 0 0 609.8 121.2;" xml:space="preserve">
<style type="text/css">
	.st0{fill:none;stroke:#F59C41;stroke-width:3;stroke-linecap:round;stroke-linejoin:round;}
</style>
<path class="st0" d="M29.8,47.3c0.3,1.3,11.4,1.9,33.2,1.6c21.8-0.3,38.8-0.6,50.7-1.1c12-0.5,22-0.8,30-1c8-0.2,14.3-0.4,18.9-0.5
	c4.6-0.1,15.7-0.3,33.2-0.6c17.5-0.3,31-0.5,40.4-0.7c9.4-0.2,24.6-0.4,45.8-0.7c21.1-0.3,45.8-0.4,73.9-0.2
	c28.1,0.1,49.1,0.2,63.1,0.4c14,0.1,27.4,0.3,40.4,0.5c13,0.2,23.4,0.4,31.4,0.5c8,0.1,35.7,1.1,83.4,2.8l0.1,0.1
	c0.1,0.3-14.5,1.1-43.7,2.3c-29.2,1.2-52.3,2.3-69.2,3.1c-16.9,0.8-29.2,1.5-36.9,2c-7.7,0.5-13.2,0.8-16.6,1
	c-3.4,0.2-18.2,1-44.4,2.6c-26.2,1.6-54.6,3.5-85.3,5.8c-30.7,2.3-54.1,4.1-70.3,5.5c-16.2,1.4-37.1,3.1-62.9,5
	c-25.7,1.9-53.4,3.1-83,3.6c-0.4,0.4,7.4-0.2,23.3-1.7c15.9-1.5,36.8-2.5,62.8-2.8c26-0.4,45.9-0.5,59.7-0.4
	c13.9,0.1,24.8,0.1,32.7,0c8-0.1,18.5,0,31.6,0.1c13.1,0.1,23.5,0.2,31.1,0.3c7.7,0.1,17.9,0.3,30.7,0.6c12.8,0.3,22.9,0.6,30.1,0.8
	c7.3,0.2,13.9,0.4,19.9,0.6c6,0.2,11,0.4,15,0.5c4,0.1,9.5,0.4,16.4,0.8c6.9,0.4,13.8,0.8,20.7,1.2"/>
</svg>
